<?xml version="1.0" encoding="UTF-8"?>
<!DOCTYPE svg PUBLIC "-//W3C//DTD SVG 1.1//EN" "http://www.w3.org/Graphics/SVG/1.1/DTD/svg11.dtd">
<svg xmlns="http://www.w3.org/2000/svg" version="1.1" width="2578px" height="709px" style="shape-rendering:geometricPrecision; text-rendering:geometricPrecision; image-rendering:optimizeQuality; fill-rule:evenodd; clip-rule:evenodd" xmlns:xlink="http://www.w3.org/1999/xlink">
<g><path style="opacity:0.995" fill="#0f6fb7" d="M 326.5,-0.5 C 344.833,-0.5 363.167,-0.5 381.5,-0.5C 502.15,12.0854 594.65,69.4188 659,171.5C 708.542,257.963 721.208,349.629 697,446.5C 666.878,550.611 603.378,626.778 506.5,675C 466.389,693.693 424.389,704.859 380.5,708.5C 362.833,708.5 345.167,708.5 327.5,708.5C 217.262,697.814 129.428,648.147 64,559.5C 26.9446,505.836 5.44463,446.503 -0.5,381.5C -0.5,363.167 -0.5,344.833 -0.5,326.5C 12.6371,203.658 71.6371,110.158 176.5,46C 223.234,19.655 273.234,4.15503 326.5,-0.5 Z M 253.5,559.5 C 268.7,547.477 283.2,534.477 297,520.5C 344.531,469.143 353.531,411.476 324,347.5C 309.479,317.768 291.479,290.435 270,265.5C 225.812,215.634 176.979,171.134 123.5,132C 122.04,131.189 121.707,130.355 122.5,129.5C 215.331,156.166 306.997,186.332 397.5,220C 437.417,235.197 476.417,252.531 514.5,272C 537.387,283.528 557.887,298.361 576,316.5C 584.504,325.51 586.837,335.844 583,347.5C 578.659,356.188 573.326,364.188 567,371.5C 547.622,390.555 526.789,407.721 504.5,423C 424.51,474.672 340.844,520.172 253.5,559.5 Z"/></g>
<g><path style="opacity:0.944" fill="#0f6fb7" d="M 2502.5,75.5 C 2508.83,75.5 2515.17,75.5 2521.5,75.5C 2521.77,84.6327 2525.94,87.2994 2534,83.5C 2535.34,80.978 2536.17,78.3113 2536.5,75.5C 2542.83,75.5 2549.17,75.5 2555.5,75.5C 2553.43,91.0652 2544.43,98.3986 2528.5,97.5C 2512.71,98.3652 2504.04,91.0319 2502.5,75.5 Z"/></g>
<g><path style="opacity:0.961" fill="#0f6fb7" d="M 872.5,100.5 C 881.173,100.334 889.84,100.5 898.5,101C 903.716,101.554 908.716,102.887 913.5,105C 914.022,105.561 914.355,106.228 914.5,107C 912.28,113.712 910.613,120.546 909.5,127.5C 899.13,123.867 888.463,122.7 877.5,124C 865.239,126.207 856.739,133.041 852,144.5C 846.994,157.784 847.661,170.784 854,183.5C 861.648,194.66 872.315,200.326 886,200.5C 893.951,199.743 901.784,198.409 909.5,196.5C 910.319,203.597 911.653,210.597 913.5,217.5C 893.313,225.27 872.98,225.437 852.5,218C 827.506,204.77 816.672,183.936 820,155.5C 824.097,124.239 841.597,105.905 872.5,100.5 Z"/></g>
<g><path style="opacity:0.962" fill="#0f6fb7" d="M 1320.5,100.5 C 1329.51,100.334 1338.51,100.5 1347.5,101C 1353.17,101.747 1358.5,103.414 1363.5,106C 1361.44,112.74 1359.61,119.573 1358,126.5C 1357.59,126.957 1357.09,127.291 1356.5,127.5C 1341.07,121.437 1326.07,122.271 1311.5,130C 1298.76,142.304 1294.6,157.138 1299,174.5C 1304.73,191.534 1316.73,200.2 1335,200.5C 1342.63,199.692 1350.13,198.526 1357.5,197C 1358.95,203.267 1360.29,209.6 1361.5,216C 1360.85,218.504 1359.18,219.837 1356.5,220C 1333.3,226.516 1311.3,223.85 1290.5,212C 1278.32,202.492 1271.16,189.992 1269,174.5C 1264.76,134.575 1281.93,109.908 1320.5,100.5 Z"/></g>
<g><path style="opacity:0.965" fill="#0f6fb7" d="M 1526.5,100.5 C 1551.08,96.7356 1570.58,104.736 1585,124.5C 1597.63,149.14 1597.63,173.807 1585,198.5C 1573.14,215.265 1556.81,223.598 1536,223.5C 1505.82,222.324 1487.49,206.99 1481,177.5C 1475.77,151.179 1482.94,129.012 1502.5,111C 1509.97,106.095 1517.97,102.595 1526.5,100.5 Z M 1531.5,122.5 C 1548.09,121.719 1558.59,129.386 1563,145.5C 1566.92,160.806 1565.25,175.473 1558,189.5C 1544,205.5 1530,205.5 1516,189.5C 1506,171.167 1506,152.833 1516,134.5C 1519.66,128.435 1524.83,124.435 1531.5,122.5 Z"/></g>
<g><path style="opacity:0.965" fill="#0f6fb7" d="M 1788.5,100.5 C 1825.38,96.5809 1847.88,112.581 1856,148.5C 1859.17,168.505 1855.17,186.838 1844,203.5C 1827.69,220.542 1807.86,226.709 1784.5,222C 1760.5,215.665 1746.67,200.165 1743,175.5C 1738.68,150.559 1745.52,129.393 1763.5,112C 1771.17,106.497 1779.5,102.664 1788.5,100.5 Z M 1794.5,122.5 C 1808.92,121.63 1818.75,127.964 1824,141.5C 1829.41,157.597 1828.41,173.263 1821,188.5C 1807.77,204.806 1793.77,205.472 1779,190.5C 1770.2,173.651 1769.2,156.318 1776,138.5C 1779.94,130.468 1786.1,125.135 1794.5,122.5 Z"/></g>
<g><path style="opacity:0.961" fill="#0f6fb7" d="M 2168.5,100.5 C 2177.17,100.334 2185.84,100.5 2194.5,101C 2199.72,101.554 2204.72,102.887 2209.5,105C 2210.02,105.561 2210.36,106.228 2210.5,107C 2208.59,113.796 2206.93,120.629 2205.5,127.5C 2193.74,123.367 2181.74,122.534 2169.5,125C 2152.76,131.439 2144.43,143.772 2144.5,162C 2145.86,185.695 2158.36,198.528 2182,200.5C 2189.95,199.743 2197.78,198.409 2205.5,196.5C 2206.32,203.597 2207.65,210.597 2209.5,217.5C 2189.31,225.27 2168.98,225.437 2148.5,218C 2123.51,204.772 2112.67,183.939 2116,155.5C 2120.1,124.239 2137.6,105.905 2168.5,100.5 Z"/></g>
<g><path style="opacity:0.962" fill="#0f6fb7" d="M 1054.5,101.5 C 1067.17,101.333 1079.84,101.5 1092.5,102C 1103.88,102.675 1113.38,107.175 1121,115.5C 1130.29,133.953 1125.79,147.786 1107.5,157C 1125.36,163.214 1132.53,175.714 1129,194.5C 1123.25,210.643 1111.75,219.476 1094.5,221C 1076.59,223.136 1058.76,222.969 1041,220.5C 1040.5,181.501 1040.33,142.501 1040.5,103.5C 1045.34,103.089 1050.01,102.422 1054.5,101.5 Z M 1071.5,121.5 C 1078.34,121.039 1085.01,121.872 1091.5,124C 1097.54,128.593 1099.04,134.427 1096,141.5C 1094.06,144.106 1091.56,145.939 1088.5,147C 1081.92,148.377 1075.26,148.877 1068.5,148.5C 1068.5,139.833 1068.5,131.167 1068.5,122.5C 1069.79,122.737 1070.79,122.404 1071.5,121.5 Z M 1068.5,169.5 C 1075.57,169.161 1082.57,169.661 1089.5,171C 1100.61,175.736 1103.44,183.569 1098,194.5C 1094.9,197.933 1091.06,200.1 1086.5,201C 1080.51,201.499 1074.51,201.666 1068.5,201.5C 1068.5,190.833 1068.5,180.167 1068.5,169.5 Z"/></g>
<g><path style="opacity:0.97" fill="#0f6fb7" d="M 938.5,102.5 C 963.167,102.5 987.833,102.5 1012.5,102.5C 1012.5,110.167 1012.5,117.833 1012.5,125.5C 997.167,125.5 981.833,125.5 966.5,125.5C 966.5,133.167 966.5,140.833 966.5,148.5C 980.833,148.5 995.167,148.5 1009.5,148.5C 1009.5,156.167 1009.5,163.833 1009.5,171.5C 995.167,171.5 980.833,171.5 966.5,171.5C 966.5,180.5 966.5,189.5 966.5,198.5C 982.5,198.5 998.5,198.5 1014.5,198.5C 1014.5,206.167 1014.5,213.833 1014.5,221.5C 989.167,221.5 963.833,221.5 938.5,221.5C 938.5,181.833 938.5,142.167 938.5,102.5 Z"/></g>
<g><path style="opacity:0.965" fill="#0f6fb7" d="M 1179.5,102.5 C 1191.83,102.5 1204.17,102.5 1216.5,102.5C 1228.66,142.127 1240.66,181.794 1252.5,221.5C 1242.5,221.5 1232.5,221.5 1222.5,221.5C 1219.83,211.5 1217.17,201.5 1214.5,191.5C 1203.17,191.5 1191.83,191.5 1180.5,191.5C 1178.24,201.269 1175.58,210.935 1172.5,220.5C 1162.83,221.833 1153.17,221.833 1143.5,220.5C 1155.81,181.246 1167.81,141.912 1179.5,102.5 Z M 1196.5,124.5 C 1200.81,139.735 1205.15,155.068 1209.5,170.5C 1201.5,170.5 1193.5,170.5 1185.5,170.5C 1189.58,155.27 1193.24,139.937 1196.5,124.5 Z"/></g>
<g><path style="opacity:0.97" fill="#0f6fb7" d="M 1380.5,102.5 C 1411.17,102.5 1441.83,102.5 1472.5,102.5C 1472.5,110.167 1472.5,117.833 1472.5,125.5C 1461.83,125.5 1451.17,125.5 1440.5,125.5C 1440.5,157.5 1440.5,189.5 1440.5,221.5C 1431.17,221.5 1421.83,221.5 1412.5,221.5C 1412.5,189.5 1412.5,157.5 1412.5,125.5C 1401.83,125.5 1391.17,125.5 1380.5,125.5C 1380.5,117.833 1380.5,110.167 1380.5,102.5 Z"/></g>
<g><path style="opacity:0.967" fill="#0f6fb7" d="M 1619.5,102.5 C 1651.83,102.5 1684.17,102.5 1716.5,102.5C 1716.5,142.167 1716.5,181.833 1716.5,221.5C 1707.17,221.5 1697.83,221.5 1688.5,221.5C 1688.5,189.5 1688.5,157.5 1688.5,125.5C 1674.83,125.5 1661.17,125.5 1647.5,125.5C 1647.5,157.5 1647.5,189.5 1647.5,221.5C 1638.17,221.5 1628.83,221.5 1619.5,221.5C 1619.5,181.833 1619.5,142.167 1619.5,102.5 Z"/></g>
<g><path style="opacity:0.979" fill="#0f6fb7" d="M 1895.5,102.5 C 1922.17,102.5 1948.83,102.5 1975.5,102.5C 1975.5,142.167 1975.5,181.833 1975.5,221.5C 1966.5,221.5 1957.5,221.5 1948.5,221.5C 1948.5,189.5 1948.5,157.5 1948.5,125.5C 1939.83,125.5 1931.17,125.5 1922.5,125.5C 1922.83,143.528 1922.33,161.528 1921,179.5C 1919.17,205.989 1905.17,220.656 1879,223.5C 1877.89,223.415 1876.89,223.081 1876,222.5C 1874.88,215.146 1873.71,207.813 1872.5,200.5C 1884.03,198.807 1890.86,192.14 1893,180.5C 1893.93,175.201 1894.6,169.867 1895,164.5C 1895.5,143.836 1895.67,123.169 1895.5,102.5 Z"/></g>
<g><path style="opacity:0.979" fill="#0f6fb7" d="M 2007.5,102.5 C 2016.5,102.5 2025.5,102.5 2034.5,102.5C 2034.33,116.171 2034.5,129.837 2035,143.5C 2052.84,139.945 2069.34,143.111 2084.5,153C 2097.79,167.92 2099.96,184.42 2091,202.5C 2085,211.093 2076.83,216.593 2066.5,219C 2061.24,220.385 2055.91,221.385 2050.5,222C 2036.15,222.656 2021.82,222.49 2007.5,221.5C 2007.5,181.833 2007.5,142.167 2007.5,102.5 Z M 2040.5,163.5 C 2048.11,163.208 2055.11,165.042 2061.5,169C 2069.68,178.613 2069.34,187.947 2060.5,197C 2052.33,201.058 2043.67,202.558 2034.5,201.5C 2034.5,189.167 2034.5,176.833 2034.5,164.5C 2036.74,164.795 2038.74,164.461 2040.5,163.5 Z"/></g>
<g><path style="opacity:0.973" fill="#0f6fb7" d="M 2234.5,102.5 C 2243.5,102.5 2252.5,102.5 2261.5,102.5C 2261.17,118.847 2261.5,135.18 2262.5,151.5C 2273.66,135.493 2284.66,119.327 2295.5,103C 2306.83,102.333 2318.17,102.333 2329.5,103C 2316.05,120.076 2302.71,137.243 2289.5,154.5C 2301.53,159.025 2309.69,167.359 2314,179.5C 2318.55,193.647 2323.38,207.647 2328.5,221.5C 2318.48,221.832 2308.48,221.499 2298.5,220.5C 2294.5,210.341 2291,200.008 2288,189.5C 2283.86,176.673 2275.02,170.673 2261.5,171.5C 2261.5,188.167 2261.5,204.833 2261.5,221.5C 2252.5,221.5 2243.5,221.5 2234.5,221.5C 2234.5,181.833 2234.5,142.167 2234.5,102.5 Z"/></g>
<g><path style="opacity:0.963" fill="#0f6fb7" d="M 2349.5,102.5 C 2358.17,102.5 2366.83,102.5 2375.5,102.5C 2375.55,131.563 2375.05,160.563 2374,189.5C 2387.97,160.234 2402.97,131.568 2419,103.5C 2428.75,102.514 2438.58,102.181 2448.5,102.5C 2448.5,142.167 2448.5,181.833 2448.5,221.5C 2439.83,221.5 2431.17,221.5 2422.5,221.5C 2422.28,194.11 2422.78,166.777 2424,139.5C 2411.39,167.384 2397.23,194.384 2381.5,220.5C 2370.85,221.499 2360.19,221.832 2349.5,221.5C 2349.5,181.833 2349.5,142.167 2349.5,102.5 Z"/></g>
<g><path style="opacity:0.971" fill="#0f6fb7" d="M 2577.5,102.5 C 2577.5,142.167 2577.5,181.833 2577.5,221.5C 2569.17,221.5 2560.83,221.5 2552.5,221.5C 2552.28,194.11 2552.78,166.777 2554,139.5C 2541.39,167.384 2527.23,194.384 2511.5,220.5C 2500.85,221.499 2490.19,221.832 2479.5,221.5C 2479.5,181.833 2479.5,142.167 2479.5,102.5C 2488.17,102.5 2496.83,102.5 2505.5,102.5C 2505.53,131.563 2505.03,160.563 2504,189.5C 2517.97,160.234 2532.97,131.568 2549,103.5C 2558.42,102.515 2567.92,102.182 2577.5,102.5 Z"/></g>
<g><path style="opacity:0.944" fill="#0f6fb7" d="M 2499.5,268.5 C 2505.84,268.334 2512.18,268.5 2518.5,269C 2518.65,276.496 2522.32,279.496 2529.5,278C 2532.62,275.592 2533.95,272.426 2533.5,268.5C 2539.83,268.5 2546.17,268.5 2552.5,268.5C 2550.87,284.285 2542.04,291.618 2526,290.5C 2510,291.662 2501.17,284.329 2499.5,268.5 Z"/></g>
<g><path style="opacity:0.965" fill="#0f6fb7" d="M 956.5,293.5 C 994.721,290.574 1016.89,307.908 1023,345.5C 1025.13,396.376 1000.96,419.543 950.5,415C 925.392,407.549 911.559,390.715 909,364.5C 905.819,338.719 914.319,317.886 934.5,302C 941.461,297.852 948.795,295.019 956.5,293.5 Z M 961.5,315.5 C 976.123,315.064 985.957,321.731 991,335.5C 996.052,351.704 994.718,367.37 987,382.5C 974.722,397.157 961.389,398.157 947,385.5C 935.276,366.611 934.609,347.277 945,327.5C 949.245,321.641 954.745,317.641 961.5,315.5 Z"/></g>
<g><path style="opacity:0.96" fill="#0f6fb7" d="M 1089.5,293.5 C 1101.28,292.976 1112.95,293.81 1124.5,296C 1126.95,296.725 1129.28,297.725 1131.5,299C 1129.44,305.74 1127.61,312.573 1126,319.5C 1125.44,320.022 1124.77,320.355 1124,320.5C 1108.17,314.199 1093,315.366 1078.5,324C 1066.49,336.22 1062.65,350.72 1067,367.5C 1072.77,384.575 1084.77,393.242 1103,393.5C 1110.17,393 1117.17,391.667 1124,389.5C 1124.5,389.833 1125,390.167 1125.5,390.5C 1127.69,397.431 1128.69,404.431 1128.5,411.5C 1107.67,418.51 1087,418.01 1066.5,410C 1049.23,401.057 1039.4,386.89 1037,367.5C 1032.71,327.005 1050.21,302.338 1089.5,293.5 Z"/></g>
<g><path style="opacity:0.962" fill="#0f6fb7" d="M 1671.5,293.5 C 1685.15,292.455 1698.49,293.955 1711.5,298C 1712.02,298.561 1712.36,299.228 1712.5,300C 1710.59,306.79 1708.93,313.623 1707.5,320.5C 1697.45,316.975 1687.11,315.808 1676.5,317C 1656.96,321.901 1646.96,334.567 1646.5,355C 1647.87,378.703 1660.37,391.536 1684,393.5C 1691.98,392.941 1699.82,391.607 1707.5,389.5C 1708.32,396.597 1709.65,403.597 1711.5,410.5C 1704.59,413.785 1697.26,415.618 1689.5,416C 1637.35,418.179 1613.85,393.346 1619,341.5C 1626.21,314.114 1643.71,298.114 1671.5,293.5 Z"/></g>
<g><path style="opacity:0.96" fill="#0f6fb7" d="M 1527.5,294.5 C 1539.17,294.333 1550.84,294.5 1562.5,295C 1591.48,299.769 1602.98,316.602 1597,345.5C 1591.73,359.737 1581.56,368.237 1566.5,371C 1557.89,372.339 1549.23,372.839 1540.5,372.5C 1540.5,386.5 1540.5,400.5 1540.5,414.5C 1531.17,414.5 1521.83,414.5 1512.5,414.5C 1512.5,375.167 1512.5,335.833 1512.5,296.5C 1517.68,296.153 1522.68,295.487 1527.5,294.5 Z M 1543.5,315.5 C 1553.49,313.784 1561.99,316.45 1569,323.5C 1574.16,339.018 1568.66,348.185 1552.5,351C 1548.46,351.607 1544.46,351.44 1540.5,350.5C 1540.5,339.167 1540.5,327.833 1540.5,316.5C 1541.79,316.737 1542.79,316.404 1543.5,315.5 Z"/></g>
<g><path style="opacity:0.961" fill="#0f6fb7" d="M 1859.5,294.5 C 1873.87,294.131 1888.21,294.631 1902.5,296C 1923.53,300.677 1932.03,313.511 1928,334.5C 1924.77,342.063 1919.27,347.229 1911.5,350C 1928.53,356.216 1935.7,368.382 1933,386.5C 1929.18,399.658 1920.68,408.158 1907.5,412C 1902.24,413.385 1896.91,414.385 1891.5,415C 1875.82,415.675 1860.15,415.508 1844.5,414.5C 1844.5,375.167 1844.5,335.833 1844.5,296.5C 1849.68,296.153 1854.68,295.487 1859.5,294.5 Z M 1877.5,314.5 C 1884.12,314.19 1890.45,315.357 1896.5,318C 1901.68,322.567 1902.85,328.067 1900,334.5C 1898.06,337.106 1895.56,338.939 1892.5,340C 1885.98,341.942 1879.31,342.775 1872.5,342.5C 1872.5,333.5 1872.5,324.5 1872.5,315.5C 1874.41,315.784 1876.08,315.451 1877.5,314.5 Z M 1872.5,362.5 C 1882.55,361.129 1891.89,362.962 1900.5,368C 1907.8,380.766 1904.47,389.433 1890.5,394C 1884.51,394.499 1878.51,394.666 1872.5,394.5C 1872.5,383.833 1872.5,373.167 1872.5,362.5 Z"/></g>
<g><path style="opacity:0.99" fill="#0f6fb7" d="M 825.5,295.5 C 849.5,295.5 873.5,295.5 897.5,295.5C 897.5,303.167 897.5,310.833 897.5,318.5C 882.5,318.5 867.5,318.5 852.5,318.5C 852.5,350.5 852.5,382.5 852.5,414.5C 843.5,414.5 834.5,414.5 825.5,414.5C 825.5,374.833 825.5,335.167 825.5,295.5 Z"/></g>
<g><path style="opacity:0.963" fill="#0f6fb7" d="M 1150.5,295.5 C 1161.08,295.18 1171.58,295.513 1182,296.5C 1190.89,316.941 1199.22,337.607 1207,358.5C 1213.07,337.452 1219.24,316.452 1225.5,295.5C 1235.51,295.334 1245.51,295.5 1255.5,296C 1246.2,319.429 1237.04,342.929 1228,366.5C 1223.11,377.939 1217.45,388.939 1211,399.5C 1198.47,415.231 1182.64,420.064 1163.5,414C 1164.63,406.925 1165.3,399.758 1165.5,392.5C 1177.44,395.527 1186.11,391.527 1191.5,380.5C 1177.55,352.267 1163.88,323.933 1150.5,295.5 Z"/></g>
<g><path style="opacity:0.972" fill="#0f6fb7" d="M 1277.5,295.5 C 1303.83,295.5 1330.17,295.5 1356.5,295.5C 1356.5,327.833 1356.5,360.167 1356.5,392.5C 1360.68,392.189 1364.68,392.855 1368.5,394.5C 1367.72,411.135 1367.05,427.801 1366.5,444.5C 1359.5,444.5 1352.5,444.5 1345.5,444.5C 1344.79,434.516 1344.45,424.516 1344.5,414.5C 1321.5,414.5 1298.5,414.5 1275.5,414.5C 1275.32,424.506 1274.99,434.506 1274.5,444.5C 1267.25,444.813 1260.08,444.48 1253,443.5C 1252.82,427.123 1252.32,410.789 1251.5,394.5C 1255.02,393.097 1258.69,392.097 1262.5,391.5C 1270.66,376.864 1275.49,361.197 1277,344.5C 1277.5,328.17 1277.67,311.837 1277.5,295.5 Z M 1303.5,317.5 C 1311.83,317.5 1320.17,317.5 1328.5,317.5C 1328.5,342.167 1328.5,366.833 1328.5,391.5C 1316.15,391.832 1303.82,391.499 1291.5,390.5C 1301.61,367.22 1305.61,342.887 1303.5,317.5 Z"/></g>
<g><path style="opacity:0.967" fill="#0f6fb7" d="M 1419.5,295.5 C 1431.83,295.5 1444.17,295.5 1456.5,295.5C 1468.5,335.167 1480.5,374.833 1492.5,414.5C 1482.5,414.5 1472.5,414.5 1462.5,414.5C 1459.63,404.551 1456.96,394.551 1454.5,384.5C 1443.17,384.5 1431.83,384.5 1420.5,384.5C 1418.24,394.269 1415.58,403.935 1412.5,413.5C 1402.83,414.833 1393.17,414.833 1383.5,413.5C 1395.81,374.246 1407.81,334.912 1419.5,295.5 Z M 1436.5,317.5 C 1440.8,332.739 1445.13,348.073 1449.5,363.5C 1441.5,363.5 1433.5,363.5 1425.5,363.5C 1429.58,348.27 1433.24,332.937 1436.5,317.5 Z"/></g>
<g><path style="opacity:0.972" fill="#0f6fb7" d="M 1730.5,295.5 C 1761.17,295.5 1791.83,295.5 1822.5,295.5C 1822.5,303.167 1822.5,310.833 1822.5,318.5C 1811.83,318.5 1801.17,318.5 1790.5,318.5C 1790.5,350.5 1790.5,382.5 1790.5,414.5C 1781.17,414.5 1771.83,414.5 1762.5,414.5C 1762.5,382.5 1762.5,350.5 1762.5,318.5C 1751.83,318.5 1741.17,318.5 1730.5,318.5C 1730.5,310.833 1730.5,303.167 1730.5,295.5 Z"/></g>
<g><path style="opacity:0.974" fill="#0f6fb7" d="M 1956.5,295.5 C 1981.17,295.5 2005.83,295.5 2030.5,295.5C 2030.5,303.167 2030.5,310.833 2030.5,318.5C 2015.17,318.5 1999.83,318.5 1984.5,318.5C 1984.5,326.167 1984.5,333.833 1984.5,341.5C 1998.83,341.5 2013.17,341.5 2027.5,341.5C 2027.5,349.167 2027.5,356.833 2027.5,364.5C 2013.17,364.5 1998.83,364.5 1984.5,364.5C 1984.5,373.5 1984.5,382.5 1984.5,391.5C 2000.5,391.5 2016.5,391.5 2032.5,391.5C 2032.5,399.167 2032.5,406.833 2032.5,414.5C 2007.17,414.5 1981.83,414.5 1956.5,414.5C 1956.5,374.833 1956.5,335.167 1956.5,295.5 Z"/></g>
<g><path style="opacity:0.963" fill="#0f6fb7" d="M 2058.5,295.5 C 2067.83,295.5 2077.17,295.5 2086.5,295.5C 2086.5,310.5 2086.5,325.5 2086.5,340.5C 2100.83,340.5 2115.17,340.5 2129.5,340.5C 2129.5,325.5 2129.5,310.5 2129.5,295.5C 2138.83,295.5 2148.17,295.5 2157.5,295.5C 2157.5,335.167 2157.5,374.833 2157.5,414.5C 2148.17,414.5 2138.83,414.5 2129.5,414.5C 2129.5,398.167 2129.5,381.833 2129.5,365.5C 2115.17,365.5 2100.83,365.5 2086.5,365.5C 2086.5,381.833 2086.5,398.167 2086.5,414.5C 2077.17,414.5 2067.83,414.5 2058.5,414.5C 2058.5,374.833 2058.5,335.167 2058.5,295.5 Z"/></g>
<g><path style="opacity:0.964" fill="#0f6fb7" d="M 2188.5,295.5 C 2197.83,295.5 2207.17,295.5 2216.5,295.5C 2216.5,310.5 2216.5,325.5 2216.5,340.5C 2230.83,340.5 2245.17,340.5 2259.5,340.5C 2259.5,325.5 2259.5,310.5 2259.5,295.5C 2268.83,295.5 2278.17,295.5 2287.5,295.5C 2287.5,335.167 2287.5,374.833 2287.5,414.5C 2278.17,414.5 2268.83,414.5 2259.5,414.5C 2259.5,398.167 2259.5,381.833 2259.5,365.5C 2245.17,365.5 2230.83,365.5 2216.5,365.5C 2216.5,381.833 2216.5,398.167 2216.5,414.5C 2207.17,414.5 2197.83,414.5 2188.5,414.5C 2188.5,374.833 2188.5,335.167 2188.5,295.5 Z"/></g>
<g><path style="opacity:0.97" fill="#0f6fb7" d="M 2318.5,295.5 C 2327.83,295.5 2337.17,295.5 2346.5,295.5C 2346.17,309.183 2346.5,322.85 2347.5,336.5C 2363.62,333.52 2378.62,336.353 2392.5,345C 2404.62,355.971 2408.79,369.471 2405,385.5C 2401.69,397.478 2394.19,405.645 2382.5,410C 2376.06,412.555 2369.39,414.222 2362.5,415C 2347.82,415.685 2333.15,415.518 2318.5,414.5C 2318.5,374.833 2318.5,335.167 2318.5,295.5 Z M 2353.5,356.5 C 2366.88,356.223 2374.88,362.556 2377.5,375.5C 2375.82,385.342 2370.16,391.509 2360.5,394C 2355.51,394.499 2350.51,394.666 2345.5,394.5C 2345.5,382.167 2345.5,369.833 2345.5,357.5C 2348.39,357.806 2351.05,357.473 2353.5,356.5 Z"/></g>
<g><path style="opacity:0.998" fill="#0f6fb7" d="M 2416.5,295.5 C 2425.5,295.5 2434.5,295.5 2443.5,295.5C 2443.5,335.167 2443.5,374.833 2443.5,414.5C 2434.5,414.5 2425.5,414.5 2416.5,414.5C 2416.5,374.833 2416.5,335.167 2416.5,295.5 Z"/></g>
<g><path style="opacity:0.966" fill="#0f6fb7" d="M 2476.5,295.5 C 2485.17,295.5 2493.83,295.5 2502.5,295.5C 2502.5,324.178 2502.34,352.844 2502,381.5C 2515.8,352.567 2530.63,324.234 2546.5,296.5C 2556.14,295.502 2565.81,295.168 2575.5,295.5C 2575.5,335.167 2575.5,374.833 2575.5,414.5C 2567.17,414.5 2558.83,414.5 2550.5,414.5C 2550.41,387.478 2550.57,360.478 2551,333.5C 2538.56,361.051 2524.56,387.717 2509,413.5C 2498.25,414.487 2487.41,414.82 2476.5,414.5C 2476.5,374.833 2476.5,335.167 2476.5,295.5 Z"/></g>
<g><path style="opacity:0.961" fill="#0f6fb7" d="M 1573.5,486.5 C 1581.17,486.334 1588.84,486.5 1596.5,487C 1602.93,487.605 1608.93,489.439 1614.5,492.5C 1612.36,499.073 1610.52,505.74 1609,512.5C 1608.44,513.022 1607.77,513.355 1607,513.5C 1591.18,507.23 1576.02,508.396 1561.5,517C 1549.58,529.235 1545.75,543.735 1550,560.5C 1555.69,577.697 1567.69,586.363 1586,586.5C 1593.36,586.14 1600.53,584.806 1607.5,582.5C 1609.85,588.748 1611.52,595.248 1612.5,602C 1612.41,603.107 1612.08,604.107 1611.5,605C 1591.38,611.296 1571.38,610.963 1551.5,604C 1535.29,596.417 1525.12,583.917 1521,566.5C 1516.28,544.412 1520.62,524.412 1534,506.5C 1544.99,495.42 1558.16,488.754 1573.5,486.5 Z"/></g>
<g><path style="opacity:0.964" fill="#0f6fb7" d="M 1213.5,487.5 C 1226.87,487.143 1240.21,487.643 1253.5,489C 1278.93,494.699 1286.76,509.533 1277,533.5C 1273.43,538.031 1268.93,541.198 1263.5,543C 1284.39,551.976 1290.56,567.143 1282,588.5C 1273.16,600.842 1260.99,607.342 1245.5,608C 1229.15,608.722 1212.82,608.555 1196.5,607.5C 1196.5,568.167 1196.5,528.833 1196.5,489.5C 1202.35,489.184 1208.02,488.518 1213.5,487.5 Z M 1231.5,507.5 C 1237.4,507.594 1243.07,508.761 1248.5,511C 1253.15,514.788 1254.65,519.622 1253,525.5C 1251.17,528.667 1248.67,531.167 1245.5,533C 1238.65,534.988 1231.65,535.821 1224.5,535.5C 1224.5,526.5 1224.5,517.5 1224.5,508.5C 1227.06,508.802 1229.39,508.468 1231.5,507.5 Z M 1224.5,555.5 C 1233.14,554.725 1241.48,555.892 1249.5,559C 1256.86,564.817 1258.36,571.984 1254,580.5C 1247.89,586.316 1240.56,588.983 1232,588.5C 1229.47,588.275 1226.97,587.942 1224.5,587.5C 1224.5,576.833 1224.5,566.167 1224.5,555.5 Z"/></g>
<g><path style="opacity:0.975" fill="#0f6fb7" d="M 1431.5,487.5 C 1441.84,487.334 1452.17,487.5 1462.5,488C 1493.74,492.257 1505.57,509.757 1498,540.5C 1491.22,555.153 1479.72,563.319 1463.5,565C 1456.17,565.5 1448.84,565.666 1441.5,565.5C 1441.5,579.5 1441.5,593.5 1441.5,607.5C 1432.5,607.5 1423.5,607.5 1414.5,607.5C 1414.5,568.167 1414.5,528.833 1414.5,489.5C 1420.35,489.184 1426.02,488.518 1431.5,487.5 Z M 1445.5,508.5 C 1453.35,507.596 1460.69,509.096 1467.5,513C 1472.25,518.269 1473.75,524.436 1472,531.5C 1467.56,540.812 1460.06,545.145 1449.5,544.5C 1447.11,544.441 1444.78,544.107 1442.5,543.5C 1441.5,532.186 1441.17,520.853 1441.5,509.5C 1443.1,509.768 1444.43,509.434 1445.5,508.5 Z"/></g>
<g><path style="opacity:0.96" fill="#0f6fb7" d="M 814.5,488.5 C 824.855,488.168 835.188,488.501 845.5,489.5C 854.115,509.728 862.448,530.061 870.5,550.5C 876.629,530.111 882.963,509.778 889.5,489.5C 899.144,488.502 908.81,488.168 918.5,488.5C 908.167,516.661 897.334,544.661 886,572.5C 881.115,583.713 874.282,593.546 865.5,602C 854.113,609.479 841.78,611.479 828.5,608C 827.903,606.938 827.57,605.772 827.5,604.5C 828.287,598.173 828.954,591.84 829.5,585.5C 838.187,587.787 845.687,585.787 852,579.5C 853.257,577.487 854.091,575.321 854.5,573C 840.747,544.995 827.413,516.828 814.5,488.5 Z"/></g>
<g><path style="opacity:0.979" fill="#0f6fb7" d="M 937.5,488.5 C 946.833,488.5 956.167,488.5 965.5,488.5C 965.5,503.5 965.5,518.5 965.5,533.5C 979.833,533.5 994.167,533.5 1008.5,533.5C 1008.5,518.5 1008.5,503.5 1008.5,488.5C 1017.5,488.5 1026.5,488.5 1035.5,488.5C 1035.5,528.167 1035.5,567.833 1035.5,607.5C 1026.5,607.5 1017.5,607.5 1008.5,607.5C 1008.5,591.167 1008.5,574.833 1008.5,558.5C 994.167,558.5 979.833,558.5 965.5,558.5C 965.5,574.833 965.5,591.167 965.5,607.5C 956.167,607.5 946.833,607.5 937.5,607.5C 937.5,567.833 937.5,528.167 937.5,488.5 Z"/></g>
<g><path style="opacity:0.969" fill="#0f6fb7" d="M 1066.5,488.5 C 1075.17,488.5 1083.83,488.5 1092.5,488.5C 1092.55,517.181 1092.38,545.847 1092,574.5C 1106.26,545.476 1121.43,516.976 1137.5,489C 1146.83,488.5 1156.16,488.334 1165.5,488.5C 1165.5,528.167 1165.5,567.833 1165.5,607.5C 1157.17,607.5 1148.83,607.5 1140.5,607.5C 1140.44,580.483 1140.61,553.483 1141,526.5C 1128.55,554.274 1114.38,581.107 1098.5,607C 1087.84,607.5 1077.17,607.667 1066.5,607.5C 1066.5,567.833 1066.5,528.167 1066.5,488.5 Z"/></g>
<g><path style="opacity:0.959" fill="#0f6fb7" d="M 1311.5,488.5 C 1336.17,488.5 1360.83,488.5 1385.5,488.5C 1385.5,496.167 1385.5,503.833 1385.5,511.5C 1370.17,511.5 1354.83,511.5 1339.5,511.5C 1339.5,519.167 1339.5,526.833 1339.5,534.5C 1354.17,534.5 1368.83,534.5 1383.5,534.5C 1383.5,542.167 1383.5,549.833 1383.5,557.5C 1368.83,557.5 1354.17,557.5 1339.5,557.5C 1339.5,566.5 1339.5,575.5 1339.5,584.5C 1355.83,584.5 1372.17,584.5 1388.5,584.5C 1388.5,592.167 1388.5,599.833 1388.5,607.5C 1362.83,607.5 1337.17,607.5 1311.5,607.5C 1311.5,567.833 1311.5,528.167 1311.5,488.5 Z"/></g>
<g><path style="opacity:0.977" fill="#0f6fb7" d="M 1638.5,488.5 C 1646.83,488.5 1655.17,488.5 1663.5,488.5C 1663.57,517.183 1663.4,545.85 1663,574.5C 1677.22,545.723 1692.22,517.39 1708,489.5C 1717.42,488.515 1726.92,488.182 1736.5,488.5C 1736.5,528.167 1736.5,567.833 1736.5,607.5C 1728.17,607.5 1719.83,607.5 1711.5,607.5C 1711.44,580.817 1711.61,554.15 1712,527.5C 1699.73,554.718 1685.89,581.051 1670.5,606.5C 1659.85,607.499 1649.19,607.832 1638.5,607.5C 1638.5,567.833 1638.5,528.167 1638.5,488.5 Z"/></g>
<g><path style="opacity:0.975" fill="#0f6fb7" d="M 1759.5,488.5 C 1790.17,488.5 1820.83,488.5 1851.5,488.5C 1851.5,496.167 1851.5,503.833 1851.5,511.5C 1840.5,511.5 1829.5,511.5 1818.5,511.5C 1818.5,543.5 1818.5,575.5 1818.5,607.5C 1809.17,607.5 1799.83,607.5 1790.5,607.5C 1790.5,575.5 1790.5,543.5 1790.5,511.5C 1780.17,511.5 1769.83,511.5 1759.5,511.5C 1759.5,503.833 1759.5,496.167 1759.5,488.5 Z"/></g>
<g><path style="opacity:0.974" fill="#0f6fb7" d="M 1873.5,488.5 C 1898.17,488.5 1922.83,488.5 1947.5,488.5C 1947.5,496.167 1947.5,503.833 1947.5,511.5C 1931.83,511.5 1916.17,511.5 1900.5,511.5C 1900.5,519.167 1900.5,526.833 1900.5,534.5C 1915.17,534.5 1929.83,534.5 1944.5,534.5C 1944.5,542.167 1944.5,549.833 1944.5,557.5C 1929.83,557.5 1915.17,557.5 1900.5,557.5C 1900.5,566.5 1900.5,575.5 1900.5,584.5C 1916.83,584.5 1933.17,584.5 1949.5,584.5C 1949.5,592.167 1949.5,599.833 1949.5,607.5C 1924.17,607.5 1898.83,607.5 1873.5,607.5C 1873.5,567.833 1873.5,528.167 1873.5,488.5 Z"/></g>
<g><path style="opacity:0.97" fill="#0f6fb7" d="M 1966.5,488.5 C 1997.17,488.5 2027.83,488.5 2058.5,488.5C 2058.5,496.167 2058.5,503.833 2058.5,511.5C 2047.83,511.5 2037.17,511.5 2026.5,511.5C 2026.5,543.5 2026.5,575.5 2026.5,607.5C 2017.17,607.5 2007.83,607.5 1998.5,607.5C 1998.5,575.5 1998.5,543.5 1998.5,511.5C 1987.83,511.5 1977.17,511.5 1966.5,511.5C 1966.5,503.833 1966.5,496.167 1966.5,488.5 Z"/></g>
</svg>
